<?xml version="1.0" encoding="utf-8"?>
<!-- Generator: Adobe Illustrator 21.0.0, SVG Export Plug-In . SVG Version: 6.00 Build 0)  -->
<svg version="1.1" id="Capa_1" xmlns="http://www.w3.org/2000/svg" xmlns:xlink="http://www.w3.org/1999/xlink" x="0px" y="0px"
	 viewBox="0 0 219.9 216" style="enable-background:new 0 0 219.9 216;" xml:space="preserve">
<style type="text/css">
	.st0{fill-rule:evenodd;clip-rule:evenodd;fill:#330000;}
	.st1{fill-rule:evenodd;clip-rule:evenodd;}
	.st2{fill-rule:evenodd;clip-rule:evenodd;fill:#003399;}
	.st3{fill-rule:evenodd;clip-rule:evenodd;fill:#0000FF;}
	.st4{fill-rule:evenodd;clip-rule:evenodd;fill:#339966;}
	.st5{fill-rule:evenodd;clip-rule:evenodd;fill:#646464;}
	.st6{clip-path:url(#SVGID_2_);fill:url(#SVGID_3_);}
	.st7{clip-path:url(#SVGID_5_);fill:url(#SVGID_6_);}
	.st8{fill:none;stroke:#000000;stroke-width:1.4173;stroke-linecap:round;stroke-linejoin:round;}
	.st9{fill:none;stroke:#000000;stroke-width:0.9921;stroke-linecap:round;stroke-linejoin:round;}
</style>
<path class="st0" d="M159,29.8l0.6-1.8l7.9,1l1.5,4.5l1,0.2c0,0-0.3-2.2-0.1-3.6c0.2-1.4-0.2-2.7-1.4-3l-0.1-9.4c0,0-0.2-0.8-0.7,0
	l-1.6,9.5l-7.3-0.7l0,3.2L159,29.8z"/>
<polygon class="st1" points="131.4,55.3 132.2,32.1 134.3,54.4 "/>
<polygon class="st2" points="131,55.3 132.2,32.1 133.9,54.4 "/>
<polygon class="st0" points="89.3,77.6 144.5,56.4 144.5,47.7 89.1,77 "/>
<path class="st3" d="M158.9,29.7l0.6-1.8l7.9,1l1.5,4.5l1,0.2c0,0-0.3-2.2-0.1-3.6c0.2-1.4-0.2-2.7-1.4-3l-0.1-9.4
	c0,0-0.2-0.8-0.7,0l-1.6,9.5l-7.3-0.7l0,3.2L158.9,29.7z"/>
<polygon class="st2" points="89.3,77.6 144.1,56 144.1,48 89.1,77 "/>
<polygon class="st2" points="181.8,39 128.6,24.6 127.6,16.4 180.8,37.8 "/>
<polygon class="st2" points="181.4,38.7 128.5,23.9 127.6,16.2 180.8,37.8 "/>
<polygon class="st1" points="169.5,160.9 173.6,78.8 175.1,166.6 144.1,166.6 "/>
<polygon class="st4" points="169.5,160.9 173.6,78.8 174.5,164.5 144.1,166.6 "/>
<rect x="151.5" y="124.4" class="st1" width="14.7" height="11.3"/>
<rect x="152.6" y="124.4" class="st5" width="12.3" height="9.3"/>
<rect x="151.5" y="104.8" class="st1" width="14.7" height="11.3"/>
<rect x="152.6" y="104.8" class="st5" width="12.3" height="9.3"/>
<rect x="151.5" y="85.2" class="st1" width="14.7" height="11.3"/>
<rect x="152.6" y="85.2" class="st5" width="12.3" height="9.3"/>
<rect x="151.5" y="65.6" class="st1" width="14.7" height="11.3"/>
<rect x="152.6" y="65.6" class="st5" width="12.3" height="9.3"/>
<rect x="151.5" y="45.9" class="st1" width="14.7" height="11.3"/>
<rect x="152.6" y="46" class="st5" width="12.3" height="9.3"/>
<rect x="148.7" y="144" class="st1" width="14.7" height="11.3"/>
<rect x="149.9" y="144" class="st5" width="12.3" height="9.3"/>
<polygon class="st1" points="97.1,118.7 100.7,162.4 132.8,160.2 138.7,68.4 138.7,166.6 97.3,166.6 "/>
<polygon class="st4" points="97.1,118.7 100.7,162.4 132.8,160.2 138.7,68.4 137.7,164.8 98,165.6 "/>
<rect x="101.9" y="148" class="st1" width="14.5" height="11.1"/>
<rect x="102.2" y="148" class="st5" width="13.8" height="9.3"/>
<rect x="104.6" y="128.3" class="st1" width="14.5" height="11.1"/>
<rect x="105" y="128.3" class="st5" width="13.8" height="9.3"/>
<rect x="104.6" y="108.6" class="st1" width="14.5" height="11.1"/>
<rect x="105" y="108.6" class="st5" width="13.8" height="9.3"/>
<rect x="104.6" y="85.8" class="st1" width="14.5" height="11.1"/>
<rect x="105" y="85.8" class="st5" width="13.8" height="9.3"/>
<path class="st1" d="M168.1,162c17.4,4.9,28.3,11.5,28.3,17.3c0,11.1-39.7,20.2-88.7,20.2c-49,0-88.7-9-88.7-20.2
	c0-5.8,10.9-12.4,28.3-17.3c-20.1,4.5-32.9,11.1-32.9,18.6c0,13.5,41.7,24.4,93.2,24.4s93.2-10.9,93.2-24.4
	C200.9,173.1,188.2,166.5,168.1,162z"/>
<g>
	<defs>
		<path id="SVGID_1_" d="M168.5,161.9C186,166.7,197,173,197,178.7c0,10.8-40,19.6-89.3,19.6c-49.3,0-89.3-8.8-89.3-19.6
			c0-5.7,11-12,28.5-16.8c-20.2,4.3-33.1,10.8-33.1,18c0,13.1,42,23.6,93.9,23.6c51.9,0,93.9-10.6,93.9-23.6
			C201.6,172.7,188.7,166.2,168.5,161.9z"/>
	</defs>
	<clipPath id="SVGID_2_">
		<use xlink:href="#SVGID_1_"  style="overflow:visible;"/>
	</clipPath>
	
		<linearGradient id="SVGID_3_" gradientUnits="userSpaceOnUse" x1="-32.605" y1="233.2665" x2="-32.605" y2="232.2665" gradientTransform="matrix(-187.749 -0.7271 -3.2772 41.6577 -5251.2881 -9537.5059)">
		<stop  offset="0" style="stop-color:#FFFFFF"/>
		<stop  offset="0" style="stop-color:#D6D6D6"/>
		<stop  offset="0" style="stop-color:#FFFFFF"/>
		<stop  offset="0" style="stop-color:#000000"/>
		<stop  offset="5.000000e-02" style="stop-color:#FFFFFF"/>
		<stop  offset="0.12" style="stop-color:#FFFFFF"/>
		<stop  offset="1" style="stop-color:#FFFFFF"/>
		<stop  offset="1" style="stop-color:#FFFFFF"/>
	</linearGradient>
	<path class="st6" d="M168.5,161.9C186,166.7,197,173,197,178.7c0,10.8-40,19.6-89.3,19.6c-49.3,0-89.3-8.8-89.3-19.6
		c0-5.7,11-12,28.5-16.8c-20.2,4.3-33.1,10.8-33.1,18c0,13.1,42,23.6,93.9,23.6c51.9,0,93.9-10.6,93.9-23.6
		C201.6,172.7,188.7,166.2,168.5,161.9z"/>
</g>
<path class="st1" d="M168.1,134.8c17.4,4.9,28.3,11.5,28.3,17.3c0,11.1-39.7,20.2-88.7,20.2c-49,0-88.7-9-88.7-20.2
	c0-5.8,10.9-12.4,28.3-17.3c-20.1,4.5-32.9,11.1-32.9,18.6c0,13.5,41.7,24.4,93.2,24.4s93.2-10.9,93.2-24.4
	C200.9,146,188.2,139.3,168.1,134.8z"/>
<g>
	<defs>
		<path id="SVGID_4_" d="M168.5,134.7c17.5,4.8,28.5,11.1,28.5,16.8c0,10.8-40,19.6-89.3,19.6c-49.3,0-89.3-8.8-89.3-19.6
			c0-5.7,11-12,28.5-16.8c-20.2,4.3-33.1,10.8-33.1,18c0,13.1,42,23.6,93.9,23.6c51.9,0,93.9-10.6,93.9-23.6
			C201.6,145.5,188.7,139.1,168.5,134.7z"/>
	</defs>
	<clipPath id="SVGID_5_">
		<use xlink:href="#SVGID_4_"  style="overflow:visible;"/>
	</clipPath>
	
		<linearGradient id="SVGID_6_" gradientUnits="userSpaceOnUse" x1="-32.605" y1="233.2665" x2="-32.605" y2="232.2665" gradientTransform="matrix(-187.749 -0.7271 -3.2772 41.6538 -5251.2881 -9563.7627)">
		<stop  offset="0" style="stop-color:#FFFFFF"/>
		<stop  offset="0" style="stop-color:#D6D6D6"/>
		<stop  offset="0" style="stop-color:#FFFFFF"/>
		<stop  offset="0" style="stop-color:#000000"/>
		<stop  offset="5.000000e-02" style="stop-color:#FFFFFF"/>
		<stop  offset="0.12" style="stop-color:#FFFFFF"/>
		<stop  offset="1" style="stop-color:#FFFFFF"/>
		<stop  offset="1" style="stop-color:#FFFFFF"/>
	</linearGradient>
	<path class="st7" d="M168.5,134.7c17.5,4.8,28.5,11.1,28.5,16.8c0,10.8-40,19.6-89.3,19.6c-49.3,0-89.3-8.8-89.3-19.6
		c0-5.7,11-12,28.5-16.8c-20.2,4.3-33.1,10.8-33.1,18c0,13.1,42,23.6,93.9,23.6c51.9,0,93.9-10.6,93.9-23.6
		C201.6,145.5,188.7,139.1,168.5,134.7z"/>
</g>
<polygon class="st2" points="91.4,20.4 124.5,53.5 129.6,48.4 91.4,10.2 63.2,38.4 68.3,43.5 "/>
<rect x="82.9" y="38.5" class="st2" width="6.4" height="6.4"/>
<rect x="93.6" y="38.5" class="st2" width="6.4" height="6.4"/>
<rect x="82.9" y="48.6" class="st2" width="6.4" height="6.4"/>
<rect x="93.6" y="48.6" class="st2" width="6.4" height="6.4"/>
<polygon class="st4" points="81.2,148.6 80.5,142.4 80.9,74.7 62.3,43.3 62.3,138.6 47.8,138.6 47.3,147.8 68.5,147.8 68.5,65.6 
	72.8,72.1 72.8,148.7 78.9,148.7 "/>
<path class="st2" d="M17.6,166.5c60,8.8,99.3,12,118,9.6c18.7-2.4,28.8-4,30.4-4.8c1.6-0.7,12.2-5.8,31.8-15.1"/>
<line class="st8" x1="47.3" y1="147.8" x2="68.5" y2="147.8"/>
<line class="st8" x1="72.8" y1="148.7" x2="81.3" y2="148.7"/>
<polyline class="st9" points="81.3,148.7 80.8,145.5 80.9,74.7 "/>
</svg>
